_________________________  Visit us at _________________________
  
http://p2pdl.com  ____________________________  http://p2pdl.com

 
http://www.shotpix.com/images/29949421398483958601.jpg


Jab Tak Hai Jaan 2012 DVDRip x264 AAC - ViZNU

				
Genre: Drama | Romance
Plot: After finding and losing his true love in London, Samar Anand defies death by becoming a bomb
disposal expert for the Indian Army. Returning to London after 10 years, he suffers amnesia after an
accident. Will he be reunited with his love?   
Director: Yash Chopra
Stars: Shah Rukh Khan, Katrina Kaif and Anushka Sharma.
Rated: N/a 
http://www.imdb.com/title/tt2176013/ 
http://cinemahouse.in/movie/220/Jab+Tak+Hai+Jaan

General
Format                         : MPEG-4
Format profile                 : Base Media
Codec ID                       : isom
File size                      : 699 MiB
Duration                       : 2h 56mn
Overall bit rate mode          : Variable
Overall bit rate               : 554 Kbps
Source                         : NTSC DVD9

Video
ID                             : 1
Format                         : AVC
Format/Info                    : Advanced Video Codec
Duration                       : 2h 56mn
Bit rate                       : 518 Kbps
Maximum bit rate               : 3 072 Kbps
Width                          : 608 pixels
Height                         : 256 pixels
Display aspect ratio           : 2.40:1
Frame rate mode                : Constant
Frame rate                     : 29.970 fps
Stream size                    : 653 MiB (93%)
Writing library                : x264 core 129 r2230

Audio
ID                             : 2
Format                         : AAC
Format/Info                    : Advanced Audio Codec
Codec ID                       : 40
Duration                       : 2h 56mn
Bit rate mode                  : Variable
Bit rate                       : 32.0 Kbps
Maximum bit rate               : 41.0 Kbps
Channel(s)                     : 2 channels
Channel positions              : Front: L R
Sampling rate                  : 44.1 KHz
Stream size                    : 40.3 MiB (6%)
Language                       : Hindi

Subtitle                       : Na

Screens:
 
http://www.shotpix.com/images/21094821453872814967.png 
http://www.shotpix.com/images/64184041644449441186.png 
http://www.shotpix.com/images/84992381980346027428.png 
http://www.shotpix.com/images/28321123557332365286.png 
http://www.shotpix.com/images/18650920685130908944.png 
http://www.shotpix.com/images/43846627318264007021.png

Sample:



----------------------------------------------------------------------------------------------------


Recommend to you to use latest version of VLC player. Install K-Lite Codec Pack or shark007 codecs
in case of any kind of problem in playback (For non-VLC Media Player users). Alternatively, install
Core AVC codecs, the fastest decoder that there is coupled with Community Center Codec Pack and play
on Windows Media Player Classic. Check sample to be sure.
Enjoy!

Greets to: Vitamin_X, a2zRG, srkfan, MgB, Stumpie1971, Sheychi, StyLishSaLH and, Masta staff members at
ExtraTorrent, TPB,KAT, 1337x, PublicHD, Ahashare, BTScene, SilverTorrent, LimeTorrents, TorrentMafia,
P2PDL, and all others.

Encoder Notes: Looking For Early Access To Anything You Can Provide DVDScr, R5, DVDR, BluRay, Direct
Audio, Early Music Releases, Seedboxes, Dedicated Servers anything u can provide, Advance / Promo CDs/
DVDs. If You Got anything to offer contact me at "prg@hush.com".

Facebook Fan Page: www . facebook . com / p2pdl